<?xml version="1.0" encoding="UTF-8"?>
<svg xmlns="http://www.w3.org/2000/svg" version="1.1" viewBox="0 0 128.5 56">
  <defs>
    <style>
      .cls-1 {
        fill-rule: evenodd;
      }
    </style>
  </defs>
  <!-- Generator: Adobe Illustrator 28.7.1, SVG Export Plug-In . SVG Version: 1.2.0 Build 142)  -->
  <g>
    <g id="Layer_1">
      <g>
        <path d="M100.7,48.3c0-1.3-.7-2.5-2.1-2.9,1.4-.5,2-1.6,2-3v-3.8c0-2.9-1.8-4.2-4.2-4.2h-5.4v21.2h3.4v-9h1.6c.9,0,1.4.7,1.4,1.6v4.5c0,1.6.5,2.9,1.8,2.9h2.1v-1c-.4-.6-.6-1.2-.6-2.2,0,0,0-4.1,0-4.1ZM97.3,42.5c0,1-.5,1.5-1.3,1.5h-1.7v-6.7h1.8c.8,0,1.1.4,1.1,1.3v3.9h0Z"/>
        <path d="M124.9,43.4l3.5-9h-3.4l-3.6,10v-10h-3.4v21.2h3.4v-5.8l1.2-3,2.4,8.8h3.5l-3.6-12.2Z"/>
        <path d="M112.6,51.3c0,1.1-.6,1.7-1.7,1.7s-1.6-.6-1.6-1.7v-16.8h-3.5v16.8c0,2.9,2.2,4.8,5.1,4.8s5-1.9,5-4.8v-16.9h-3.4v16.9h0Z"/>
        <path d="M80.7,55.6h8.6v-3.1h-5.2v-6.5h3.6v-2.8h-3.6v-5.8h5.2v-3h-8.6v21.2Z"/>
        <path d="M63.9,47.4l-1.1-3.3-3.4-9.7h-3v21.2h3.1v-12.8l1.2,3.3,3.6,9.6h2.6v-21.3h-3v13Z"/>
        <path d="M47.6,34.4l-3.6,21.2h3.1l.6-4.1h3.1l.6,4.2h3.5l-3.6-21.2h-3.7ZM48,48.6l1.5-10.1,1.3,10.1h-2.8Z"/>
        <path d="M74,34.1c-3.1,0-5.2,2.2-5.2,5.1v11.8c0,2.9,2,5.1,5.2,5.1s4.9-2,4.9-4.9v-3.2h-3v3.1c0,1-.6,1.7-1.8,1.7s-1.8-.7-1.8-1.7v-12.3c0-1,.6-1.7,1.8-1.7s1.8.7,1.8,1.7v3.1h3v-3c0-2.8-1.8-4.8-4.9-4.8Z"/>
        <path d="M38.1,34.1c-3.1,0-5.2,2.1-5.2,5.1v11.8c0,2.9,2,5.1,5.2,5.1s4.9-2,4.9-4.9v-3.2h-3v3.1c0,1-.6,1.7-1.8,1.7s-1.8-.7-1.8-1.7v-12.3c0-1,.6-1.7,1.8-1.7s1.8.7,1.8,1.7v3.1h3v-3c0-2.8-1.7-4.8-4.9-4.8Z"/>
        <path d="M118.8,29h-5.1v-6.5h3.5v-2.8h-3.5v-5.8h5.1v-3h-8.5v21.1h8.5v-3Z"/>
        <path d="M108.7,10.9h-10v3.1h3.3v18h3.4V14h3.2v-3.1h0Z"/>
        <path d="M82.2,32h3.4V14h3.2v-3.1h-10v3.1h3.4v18Z"/>
        <path d="M91.5,32l.6-4.2h3.1l.6,4.2h3.5l-3.6-21.2h-3.8l-3.6,21.2h3.2ZM93.7,15l1.3,10.1h-2.7l1.4-10.1Z"/>
        <path d="M54.4,24.7c0-1.3-.7-2.5-2.1-2.9,1.4-.5,2-1.6,2-3v-3.8c0-2.9-1.8-4.2-4.2-4.2h-5.5v21.2h3.4v-8.9h1.7c.9,0,1.4.7,1.4,1.6v4.5c0,1.6.5,2.9,1.8,2.9h2.1v-1c-.4-.6-.6-1.2-.6-2.2v-4.2ZM50.9,19c0,1-.5,1.5-1.3,1.5h-1.6v-6.7h1.8c.8,0,1.1.5,1.1,1.3v3.9h0Z"/>
        <path d="M36.6,23.7h2c2.4,0,4.2-1.3,4.2-4.3v-4.3c0-3-1.8-4.3-4.2-4.3h-5.5v21.2h3.4v-8.3h0ZM36.6,13.7h1.8c.8,0,1.1.5,1.1,1.4v4.4c0,.9-.3,1.4-1.1,1.4h-1.8v-7.2Z"/>
        <path d="M73.1,32.4c2.8,0,5-1.9,5-5.2s-1.5-4.8-3.6-6.9c-2-2.1-3-3.1-3-5.2s.7-1.7,1.7-1.7,1.7.8,1.7,2v1.9h3.1v-1.9c0-2.9-1.9-4.9-4.7-4.9s-4.9,2.3-4.9,5.2,2,5.2,3.8,6.9c1.8,1.9,2.7,3.3,2.7,5.1s-.6,1.9-1.8,1.9-1.8-.8-1.8-2.1v-1.8h-3.3v1.9c0,2.9,2,4.8,5.1,4.8Z"/>
        <path d="M61.3,32.4c3.1,0,5.1-2.1,5.1-5v-12c0-2.9-2-5-5.1-5s-5.1,2.1-5.1,5v11.9c0,3.1,2,5.1,5.1,5.1ZM59.6,15.3c0-1,.6-1.7,1.7-1.7s1.7.7,1.7,1.7v12.4c0,1-.6,1.7-1.7,1.7s-1.7-.7-1.7-1.7v-12.4Z"/>
        <path class="cls-1" d="M9.8,16.4c0,.1.1.2.2.2s.2-.1.2-.2-.1-.2-.2-.2c-.1,0-.2.1-.2.2Z"/>
        <path class="cls-1" d="M9.5,17v.9c0,.1.1.2.3.2v1.2h.5v-1.2c.1,0,.2-.1.2-.2v-.9c0-.1-.2-.2-.5-.2s-.5.1-.5.2Z"/>
        <path class="cls-1" d="M25.3,24.5c-.3,0-.5.2-.5.5s.2.5.5.5.5-.2.5-.5-.2-.5-.5-.5Z"/>
        <path class="cls-1" d="M26.3,27.7v-1.5c0-.2-.4-.4-1-.4s-1,.2-1,.4v1.5c0,.2.1.3.5.4v2.7h1.1v-2.8c.3,0,.4-.2.4-.3Z"/>
        <path class="cls-1" d="M5.4,21.5c0,.1,0,.2.2.2s.2-.1.2-.2,0-.2-.2-.2-.2.1-.2.2Z"/>
        <path class="cls-1" d="M24.5,22c0-.1-.2-.2-.5-.2.1-.1.2-.2.2-.3,0-.2-.1-.3-.3-.3s-.3.1-.3.3.1.2.2.3c-.3,0-.5.1-.5.2v1.1h.2v1.2h.8v-1.2h.2s0-1.1,0-1.1Z"/>
        <path class="cls-1" d="M17.9,28.1h.3c.1,0,.1-.1.1-.1v-1.1h.1c.1,0,.1-.1.1-.1v-1c0-.1-.1-.1-.1-.1h-.7c-.1,0-.1.1-.1.1v1c0,.1.1.1.1.1h.1v1.1h.1Z"/>
        <path class="cls-1" d="M18.3,25.2c0-.1-.1-.2-.2-.2s-.2.1-.2.2.1.2.2.2c.1,0,.2-.1.2-.2Z"/>
        <path class="cls-1" d="M15.2,17.2v1.6c0,.1.1.3.2.3v1.6c0,.2.1.3.2.3s.2-.1.2-.3v-1.6h.2v1.6c0,.2,0,.3.2.3s.2-.1.2-.3v-1.7c.1,0,.2-.1.2-.3v-1.6c0-.2-.2-.3-.3-.3h-.9c0,0-.2.2-.2.4Z"/>
        <path class="cls-1" d="M16.4,16.3c0-.2-.2-.4-.4-.4s-.4.2-.4.4.2.4.4.4c.3,0,.4,0,.4-.4Z"/>
        <path class="cls-1" d="M11.9,5.4c0,0,.1.2.2.2s.2,0,.2-.2-.1-.2-.2-.2c0,0-.2,0-.2.2Z"/>
        <path class="cls-1" d="M11.9,7.1v1.4h.6v-1.4c.2,0,.3,0,.3-.2v-.9c0,0-.3-.2-.6-.2s-.6,0-.6.2v.9c0,0,.1.2.3.2Z"/>
        <path class="cls-1" d="M11,6.3h-.5v-.7c-.2-.4-.7-.3-.7,0l.2.8c0,0,.1.2.3.2h.6v.8c0,.2.4.2.4,0v-1c0,0,0-.2-.3-.2Z"/>
        <path class="cls-1" d="M9.9,5.2c.2,0,.3,0,.3-.3s-.1-.3-.3-.3-.3,0-.3.3c0,.2.1.3.3.3Z"/>
        <path class="cls-1" d="M13.5,2.2v1.4c0,0,.1.2.2.2s.2,0,.2-.2v-1.4h.1v1.4c0,0,.1.2.2.2s.2,0,.2-.2v-1.4c.1,0,.1,0,.1-.2v-1c0-.1-.1-.2-.2-.2h-.7c-.1,0-.2.1-.2.2v1c0,0,0,.2,0,.2Z"/>
        <path class="cls-1" d="M13.9.7c.1,0,.3-.1.3-.3s-.1-.3-.3-.3-.3,0-.3.3c.1.2.2.3.3.3Z"/>
        <path class="cls-1" d="M16.6,6.4v1.4h.4v-1h.9v-.2h0l.2-1h-.6c0,0-.2.8-.2.8h-.4s-.3,0-.3,0Z"/>
        <path class="cls-1" d="M17.9,5.4c.2,0,.3,0,.3-.3s-.1-.3-.3-.3-.3,0-.3.3.1.3.3.3Z"/>
        <path class="cls-1" d="M17,2.4c.2,0,.3,0,.3-.3s-.1-.3-.3-.3-.3.1-.3.3c0,.2.2.3.3.3Z"/>
        <path class="cls-1" d="M20.6,15.3c0-.1-.1-.2-.2-.2s-.2.1-.2.2.1.2.2.2.2-.1.2-.2Z"/>
        <path class="cls-1" d="M19.9,15.7c-.2,0-.2.3-.2.4v.9h.2v-.8h.1v2.1h.2v-1.3h.2v1.3h.2v-2.1h.2v.8h.2v-1c0-.1,0-.4-.2-.4h-.9Z"/>
        <path class="cls-1" d="M14.8,3.2h0c0,0,.2.4.2.4v1.4h.8v-1.5s.2-.3.3-.4h0c0,0,.1,0,.1-.2v-1.1c0-.2-.1-.3-.3-.3h-.3c.1-.1.2-.2.2-.3,0-.2-.2-.4-.4-.4s-.4.2-.4.4.1.3.1.3h-.1c-.2,0-.3.1-.3.3v1.2q0,0,.1.2h0Z"/>
        <path class="cls-1" d="M13.9,10.1c-.4,0-.7.3-.7.7s.3.7.7.7.7-.3.7-.7c0-.4-.3-.7-.7-.7Z"/>
        <path class="cls-1" d="M12.5,12.4v2.3c0,.2.2.4.6.5v3.2h1.6v-3.2c.4-.1.6-.3.6-.5v-2.3c0-.4-.6-.6-1.4-.6-.8,0-1.4.2-1.4.6Z"/>
        <path class="cls-1" d="M18.3,15.6c0-.2-.1-.3-.3-.3s-.3.1-.3.3.1.3.3.3c.2,0,.3-.1.3-.3Z"/>
        <path class="cls-1" d="M17.4,16.1c-.2,0-.3.1-.3.3v1.2c0,.1.1.1.1.1.1,0,.1-.1.1-.1v-1h.2v2.5h0c0,.1.1.2.2.2s.2-.1.2-.2v-1.4h.2v1.4c0,.1.1.2.2.2s.2-.1.2-.2h0v-2.5h.2v1c0,.1.1.1.1.1.1,0,.1-.1.1-.1v-1.2c0-.2-.1-.3-.3-.3h-1.2Z"/>
        <path class="cls-1" d="M9.5,20c0,.2.1.4.4.4s.4-.2.4-.4-.1-.4-.4-.4-.4.1-.4.4Z"/>
        <path class="cls-1" d="M8.9,21s-.1,1-.1,1.1.1.2.2.2.2-.1.2-.2v-.9h.3v3.3h-.1c0,.1.1.2.2.2s.2-.1.2-.2v-2.2h.2v2.2c0,.1.1.2.2.2s.2-.1.2-.2h0v-3.3c-.1,0,0,0,0,0v.9c.1.1.2.2.3.2s.2-.1.2-.2v-1.1c-.1-.2-.3-.4-.5-.4h-1.2c-.2,0-.4.1-.4.4Z"/>
        <path class="cls-1" d="M22.6,21.4c0-.1-.1-.2-.3-.2s-.2.1-.2.2.1.2.2.2c.2,0,.3-.1.3-.2Z"/>
        <path class="cls-1" d="M22,24.1c0,.1.1.1.1.1h.4c.1,0,.1-.1.1-.1v-1.1h.2q.1,0,.1-.1v-.9c0-.1-.1-.2-.2-.2h-.7c-.1,0-.2.1-.2.2v.9q0,.1.1.1h.2v1.1Z"/>
        <path class="cls-1" d="M14.3,4.3c0-.2-.2-.4-.4-.4s-.4.2-.4.4.2.4.4.4c.2,0,.4-.2.4-.4Z"/>
        <path class="cls-1" d="M13,5.4v1.1c0,.2,0,.5.3.5v2h.5v-2h.2v2h.5v-2c.3,0,.3-.2.3-.5v-1.1c0-.3-.2-.5-.5-.5h-.8c-.3,0-.5.2-.5.5Z"/>
        <path class="cls-1" d="M23.7,26.3v-.8c.1,0,.2,0,.2.1v.8c.2,0,.2-.2.2-.2v-.9c-.1-.1-.2-.2-.6-.2v-.2c.1,0,.1-.1.1-.2,0-.2-.1-.3-.3-.3s-.3.1-.3.3.1.2.1.2v.2c-.4,0-.5.1-.6.2v.9s0,.2.2.2v-.8q0-.1.2-.1v2.7c-.1,0,.2,0,.2,0v-1.4c.1,0,.1-.1.2-.1,0,0,.1,0,.1.1v1.4h.4v-1.9Z"/>
        <path class="cls-1" d="M.7,28h0c.1-.1.1-.2.1-.3s-.1-.2-.2-.2-.2.1-.2.2,0,.2.1.2h0C0,28,.1,28.1.1,28.5v.5c0,.1,0,.2.2.2H.3v1.2h.2v-1.1h.3v1.1h.3v-1.1h0c0-.1-.1-.1-.1-.1.1,0,.1-.1.1-.2v-.5c0-.3.1-.4-.4-.5Z"/>
        <path class="cls-1" d="M27,27.9c0-.1-.1-.2-.2-.2s-.2.1-.2.2.1.2.1.2h.2c0-.1.1-.1.1-.2Z"/>
        <path class="cls-1" d="M27,29h0c.2,0,.2-.1.2-.3v-.4s0-.3-.2-.3h-.6c-.2,0-.2.3-.2.3v.4c0,.2.1.3.2.3h0l-.3,1.4q.2,0,.3-.2c.1-.2.2-.9.2-.9,0,0,.2.7.2.9s.1.2.3.2v-1.4Z"/>
        <path class="cls-1" d="M26.5,29h0Z"/>
        <path class="cls-1" d="M26.8,28.1h0q0,0,0,0h0Z"/>
        <path class="cls-1" d="M10.3,25.2c0-.1-.1-.2-.2-.2s-.2.1-.2.2.1.2.2.2c0,0,.2-.1.2-.2Z"/>
        <path class="cls-1" d="M10.3,28.1v-1.3c.2,0,.3-.2.3-.3v-.5c0-.2-.2-.3-.3-.3h-.5c-.2,0-.3.1-.3.3v.5c0,.2.1.3.3.3v1.3h.5Z"/>
        <path class="cls-1" d="M3.2,26.2c0-.4-.3-.7-.6-.7h0l-.3.6-.3-.6h-.1c-.4,0-.6.3-.6.7v1.4c0,.3.2.5.4.7v2.1c0,.2.1.3.2.3h.9c0,0,.2-.2.2-.3v-2.1c.2-.1.4-.4.4-.7v-1.4h0Z"/>
        <path class="cls-1" d="M2.2,25.4c.3,0,.5-.2.5-.5s-.2-.5-.5-.5-.5.2-.5.5.2.5.5.5Z"/>
        <path class="cls-1" d="M5.6,18.2v.9c0,.2,0,.4.3.5v1.4c0,.1,0,.3.2.3h.7c0,0,.2-.1.2-.3v-1.4c.2-.1.3-.3.3-.5v-.9c0-.3-.2-.5-.5-.5h0l-.2.7-.2-.7h-.2c-.3,0-.5.2-.5.5Z"/>
        <path class="cls-1" d="M6.4,17.5c.2,0,.3-.2.3-.3,0-.2-.2-.3-.3-.3-.2,0-.3.2-.3.3,0,.2,0,.3.3.3Z"/>
        <path class="cls-1" d="M15.9,28c-.4,0-.6.1-.6.3v.7h.2c0,.1.1,1.2.1,1.2h.6v-1.1c.1,0,.3-.1.3-.1v-.7c.1-.2-.2-.3-.6-.3Z"/>
        <path class="cls-1" d="M16.3,27.5c0-.2-.1-.3-.3-.3s-.3.1-.3.3.1.3.3.3.3,0,.3-.3Z"/>
        <path class="cls-1" d="M24,19.2h-1l-.5.8h-.2c0-.1-.2.2-.2.2l.5.3.6-1h1.2v-1.2c.1-.1.2-.2.2-.4s-.2-.4-.4-.4-.4.2-.4.4.1.3.2.4v.2h-.6v.3h.6v.4Z"/>
        <path class="cls-1" d="M25.1,21.4c0,.1.1.2.2.2s.2-.1.2-.2-.1-.2-.2-.2c-.1,0-.2,0-.2.2Z"/>
        <path class="cls-1" d="M24.8,21.7l-.2,1.4h.2v-.6h.2v1.7h.4v-1.7h.1s.1.5.1.6h.2l-.2-1.4h-.8Z"/>
        <path class="cls-1" d="M23.9,28.5c0,.1.1.2.2.2s.2-.1.2-.2-.1-.2-.2-.2-.2.1-.2.2Z"/>
        <path class="cls-1" d="M24.4,28.9h-.6c-.2,0-.2.2-.2.3v.9h.3v1.2h.5v-1.2h.3v-.9c0,0,0-.3-.3-.3Z"/>
        <path class="cls-1" d="M15.1,6v1c0,0,.1,0,.1,0h.1v1.2c0,.1.1.1.3.1s.3-.1.3-.1v-1.2h.1c.1,0,.1,0,.1,0v-1c0,0-.1,0-.1,0h-.8s-.1,0-.1,0Z"/>
        <path class="cls-1" d="M15.9,5.5c0,0-.1-.2-.2-.2s-.2,0-.2.2.1.2.2.2.2,0,.2-.2Z"/>
        <path class="cls-1" d="M16.8,5.7c0,.1.1.1,0,0h.4c0,0,.1,0,.1,0v-1.4h.3v-1.3c0-.2-.1-.4-.3-.4h-.5c-.2,0-.3.2-.3.4v1.3h.2v1.4Z"/>
        <path class="cls-1" d="M11.9,3.5h0v1.2h.1c0,0,.1.2.2.2h.6c.1,0,.2,0,.2-.2h0v-1.2h0c.1,0,.2,0,.2-.2v-1.6c0-.1-.2-.2-.6-.3.1-.1.2-.2.2-.3,0-.2-.2-.4-.4-.4s-.4.2-.4.4.1.3.2.3c-.3,0-.6.1-.6.3v1.6c.1,0,.2.2.3.2Z"/>
        <path class="cls-1" d="M10.8,2.5c.1,0,.3,0,.3-.3s-.1-.3-.3-.3-.3,0-.3.3c.1.2.2.3.3.3Z"/>
        <path class="cls-1" d="M11.4,10.5c-.2,0-.4.2-.4.4s.2.4.4.4.4-.2.4-.4c0-.2-.2-.4-.4-.4Z"/>
        <path class="cls-1" d="M10.6,11.5v2c-.1,0,.2,0,.2,0v2.2h.3l.2-1.7.2,1.7h.3v-2.2h.3v-2h-1.5Z"/>
        <path class="cls-1" d="M9.4,11.4c.2,0,.4-.2.4-.4s-.2-.4-.4-.4c-.2-.1-.4,0-.4.4s.2.4.4.4Z"/>
        <path class="cls-1" d="M8.9,13.1c0,0,.1,0,0,0v.8q.1,0,.2,0h.7q.1,0,.1-.1h0v-.7h0c.1-.2.2-.4.3-.4,0-.1.1-.1.1-.2v-.7c0-.2-.2-.3-.3-.3h-1.1c-.2,0-.3.1-.3.3v.7q0,.1.1.2c0,.1.1.3.2.3Z"/>
        <path class="cls-1" d="M18.1,11.7c-.2,0-.3.1-.4.1h0v1.3c0,.1.1.1.1.1h.2v1.4h1v-1.4h.2c.1,0,.1-.1.1-.1v-1.1h0c0-.1-.2-.2-.3-.2h-.1c-.3-.2-.6-.2-.8-.1Z"/>
        <path class="cls-1" d="M18,11c0,.2.2.4.4.4s.4-.2.4-.4-.2-.4-.4-.4-.4.2-.4.4Z"/>
        <path class="cls-1" d="M15.6,12.6v1.1h.2v2.1c-.1,0,.4,0,.4,0l.2-1.7.2,1.7h.5v-2.1c-.1,0,.1,0,.1,0v-1.1c0-1-.9-1-.9-1,0,0-.7,0-.7,1Z"/>
        <path class="cls-1" d="M16,11c0,.2.2.4.4.4s.4-.2.4-.4-.2-.4-.4-.4c-.2-.1-.4,0-.4.4Z"/>
        <path class="cls-1" d="M8.9,18h.3q.1,0,.1-.1v-1.1h.1c.1,0,.2-.1.2-.2v-.7c0-.1-.1-.2-.2-.2h-.7c-.1,0-.2.1-.2.2v.7c0,.1.1.2.2.2h.1v1.2h0Z"/>
        <path class="cls-1" d="M9.3,15.2c0,0-.1-.2-.3-.2s-.2.1-.2.2.1.2.2.2c.2.1.3,0,.3-.2Z"/>
        <path class="cls-1" d="M21.5,19.3c0-.1-.1-.2-.2-.2s-.2.1-.2.2.1.2.2.2c.1.1.2,0,.2-.2Z"/>
        <path class="cls-1" d="M21.5,22v-1.1c.1,0,.2-.1.2-.2v-.8c0-.1-.2-.2-.5-.2s-.5.1-.5.2v.8c0,.1.1.2.3.2v1.1s0,.1.1.1h.4Z"/>
        <path class="cls-1" d="M3.5,18.7c.2,0,.3-.1.3-.3s0-.3-.3-.3-.3.1-.3.3c0,0,.2.3.3.3Z"/>
        <path class="cls-1" d="M3.2,20.5h.9v.5h.5v-.9s0-.1,0-.1h-.7v-.6h.7s0,0,0-.1h0c0-.1.4.2.4.2l.2-.7-.6-.2-.2.5h0s0-.1,0-.1h-.2l-.4-.2h-.5s0,0,0,.1v1.4c-.1.1,0,.2,0,.2Z"/>
        <path class="cls-1" d="M5,19.9h.5q0,0,0-.1t0-.1h-1.4q0,0,0,.1,0,.1,0,.1h.7v1.1h.2v-1.1Z"/>
        <path class="cls-1" d="M4.5,24.2v-.8h0c0-.1.2-.2.2-.3h0v-.8c0-.1,0-.2-.3-.2h-.7c0,0-.3.1-.3.2v.7h0c0,.2.2.2.2.3h0v.9h.9Z"/>
        <path class="cls-1" d="M4.5,21.5c0-.2,0-.3-.3-.3s-.3.1-.3.3.2.3.3.3c.1.1.3,0,.3-.3Z"/>
        <path class="cls-1" d="M2.6,21.7h0c0,0,.2-.1.2-.2s0-.2-.2-.2h0c0,0-.2.1-.2.2,0,.1.1.2.2.2Z"/>
        <path class="cls-1" d="M2.2,23v1.2s0,.1.2.1.2,0,.2-.1v-1.2h.2v1.2s0,.1.2.1.2,0,.2-.1v-1.2c.2,0,.2-.2.2-.3v-.5c0-.2,0-.3-.3-.3h-.7c-.2,0-.3.1-.3.3v.5c0,.2,0,.3,0,.3Z"/>
        <path class="cls-1" d="M4.5,25.1h0c.2,0,.3-.1.3-.3s0-.3-.3-.3h0c-.2,0-.3.1-.3.3s.2.3.3.3Z"/>
        <path class="cls-1" d="M5,28.4c0,0,.2-.1.2-.2h0l-.4-1.6v-.9h.2v.8c0,.1,0,.1,0,.1,0,0,0-.1,0-.1h0v-.8s0-.4-.3-.4h-.8c-.3,0-.3.4-.3.4v.8c0,.1,0,.1,0,.1,0,0,0-.1,0-.1v-.8h.2v.9l-.4,1.6h0c0,.1,0,.2.2.2s.1,0,.2-.1h0l.3-1.2.3,1.2c0,0,0,.1.2.1Z"/>
        <path class="cls-1" d="M18.4,19.9c0-.2-.2-.4-.4-.4s-.4.2-.4.4.2.4.4.4c.3,0,.4-.2.4-.4Z"/>
        <path class="cls-1" d="M14.5,19.9c0-.3-.3-.6-.6-.6s-.6.3-.6.6.3.6.6.6.6-.2.6-.6Z"/>
        <path class="cls-1" d="M15.2,23.5v-2.7q-.1-.1-.2-.1h-2.1c-.1,0-.1.1-.1.1v2.7c-.1.1,0,.1,0,.1h.3l-.2,3.1h0c0,.1.1.1.1.1h.5q.1,0,.1-.1h0l.3-2.4.3,2.4h0c0,.1.1.1.1.1h.5q.1,0,.1-.1h0l-.2-3.1h.3q.2,0,.2-.1Z"/>
        <path class="cls-1" d="M12.4,20.8v-.6h-.4v.6h.4c0,.1,0,0,0,0Z"/>
        <path class="cls-1" d="M11.7,20.9s.1-.1,0,0v-.7h-.4v.6h.4Z"/>
        <path class="cls-1" d="M11.9,15.9c-.2,0-.4.2-.4.4s.2.4.4.4.4-.2.4-.4c0-.2-.2-.4-.4-.4Z"/>
        <path class="cls-1" d="M12.3,16.9s-.3.5-.4.5-.4-.5-.4-.5h0c-.4.1-.6.5-.6.9h0c0,.1.4.3.4.3v1.9h1.4v-1.9l.4-.2h0c-.2-.6-.4-.9-.8-1h0Z"/>
        <path class="cls-1" d="M12.5,24.5v-1.5c-.1-.2-.5-.3-.7-.3v-.2c.1-.1.2-.2.2-.3,0-.2-.1-.4-.3-.4s-.3.2-.3.4.1.3.2.3v.2c-.2,0-.6.1-.7.3v1.5s0,.3.3.3v-1.4h.2v1.4l-.4,2.1h.4v-1.9h.3v1.9h.5l-.2-2.1v-1.4h.2v1.4c.3,0,.3-.3.3-.3Z"/>
        <path class="cls-1" d="M3.8,28.9h-.5c0,0-.2.1-.2.3v.7s0,.1,0,.1h.8s0,0,0-.1v-.7c0-.2-.2-.3-.3-.3Z"/>
        <path class="cls-1" d="M3.4,31.2h.4v-1c0,0-.5,0-.5,0v1Z"/>
        <path class="cls-1" d="M3.3,28.5c0,.1,0,.2.2.2s.2-.1.2-.2,0-.2-.2-.2-.2.1-.2.2Z"/>
        <path class="cls-1" d="M21,11.8q.1,0,0,0c.1,0,.1-.1.1-.2,0-.4-.3-.7-.7-.7s-.7.3-.7.7.3.7.7.7h.2c0-.1.4-.5.4-.5Z"/>
        <path class="cls-1" d="M7.5,12.2s0,.1,0,0c.3,0,.5-.2.5-.5s-.3-.7-.7-.7-.7.3-.7.7,0,.4.2.5h0c0-.1.6,0,.6,0Z"/>
        <path class="cls-1" d="M19.4,15.1h-.1c0,.1.1.1.1.1,0,0,.1,0,.1-.1h-.1Z"/>
        <path class="cls-1" d="M19.1,14.8c-.1,0-.2.2-.1.3q0-.1.1-.2c.1-.1.2-.1.3-.1h0c.2,0,.3.1.3.2.5-.3.9-.6,1.3-1.2.1.1.3.3.3.6s.1.5.1.7.1.8.1.9c0,.4-.4,2.2-.4,2.4-.2,0-.5.1-.5.3h.9c.2,0,.2-.1.2-.2.1-.6.3-1.3.5-1.8,0,.4.1,1.4.2,1.6-.3,0-.5.2-.4.4h1q.2,0,.2-.2c-.2-.5-.3-2.3-.2-2.8.1-.5.1-.7-.2-1.8-.3-1.1-1.5-1.9-1.8-2-.1.2-.2.4-.4.4,0,.2-.1.5-.3,1-.2.4-.5,1-1.2,1.5Z"/>
        <path class="cls-1" d="M21.1,11.8h0l-.4.4h0c.2,0,.3-.2.4-.4Z"/>
        <path class="cls-1" d="M19,15.4c0,.2.4,3.4.4,3.4,0,.1.1.1.1.1h0c.1,0,.1-.1.1-.1h0c-.1-.5-.4-3.2-.4-3.4h0c-.1-.1-.2-.1-.2-.2v.2Z"/>
        <path class="cls-1" d="M19.6,15.3c0,.1.1.1.1.1h0s.1,0,.1-.1h0c0-.2,0-.3-.1-.4-.1,0-.1.1-.2.1q0,.2.1.3Z"/>
        <path class="cls-1" d="M19.4,14.9c-.1,0-.2.1-.3.1,0,0-.1.1-.1.2s.1.1.2.1h0c0-.1.1-.1.1-.1h.1c.1,0,.1-.1.2-.1,0-.2-.1-.2-.2-.2h0Z"/>
        <path class="cls-1" d="M4.4,18.3c.2.2.3.2.5.2.3,0,.2-.3,0-.3-.2,0-.2-.2-.2-.3.2-.2.5-.6.9-.9.3-.3.9-1.3,1-1.5,0,.2.6,1.2.8,1.5.2.3.6,1.4.6,1.8s0,.2.2.2c.2-.1.5-.2.7-.3.3-.1.2-.3,0-.3h-.5c-.1-.2-.2-1.1-.4-1.5s-.4-1.1-.6-1.7c-.2-.5,0-1.2,0-1.4,0,.1.3.4.6.6.2.2.6.4,1.1.5.4.1.5-.3.2-.4-.3-.1-.6-.3-.9-.5-.2-.2-.5-.7-.7-1,0-.2-.4-.4-.4-.6h-.2c-.2,0-.3-.1-.4-.2,0,.1-.3.1-.8.2-.6.2-1.2,1.5-1.2,2.3s0,.6.2.6.3-.1.3-.5.3-.9.6-1.2c0,1.3-.5,2.4-.7,2.7-.2.3-1,1.2-1.1,1.2q0,.1,0,.3c.2.1.2.2.4.5Z"/>
        <path class="cls-1" d="M7.5,12.3s0-.1,0,0l-.6-.2h0c0,.2.3.3.4.3q.2-.1.3-.1Z"/>
        <path class="cls-1" d="M12.1,29.5q0-.1.1-.1c.1-.1.1-.2.2-.2q.1-.1.1-.2v-.7c0-.1-.1-.2-.2-.2h-.2c-.1,0-.1-.1,0-.2s.1-.2.1-.3c0-.2-.2-.3-.3-.3-.2,0-.3.1-.3.3s.1.2.1.3c.1,0,0,.2,0,.2h-.2c-.1,0-.2.1-.2.2v.7c0,.1,0,.2.1.2,0,.1.1.1.2.2,0,.1.1.1.1.1v.6c0,.2.1.2.2.2h.3q.2,0,.2-.2v-.6h-.3Z"/>
        <path class="cls-1" d="M10.4,3.2h.1v2.6h.2v-1.3h.2v1.3h.3v-2.6h.1v1.1h.3v-1.1h0c0,0,0-.5-.3-.5h-.8c-.2,0-.3.3-.3.5h0v1.1h.2v-1.1Z"/>
        <path class="cls-1" d="M24.6,19.3c.1.1.2.3.2.5,0,.4-.3.7-.7.7s-.7-.3-.7-.7,0,0,0,0l-.3.4h0c.2.4.6.7,1,.7.6,0,1.1-.5,1.1-1.1s-.2-.8-.6-.9h-.1v.4h.1Z"/>
        <path class="cls-1" d="M19,20.5h-1.8v2.2h.4v1.9h.4v-1.9h.2v1.9h.5v-1.9h.3v-2.2Z"/>
        <path class="cls-1" d="M16.3,21.8h0c-.2,0-.4.2-.4.4s.2.4.4.4h0c.2,0,.4-.2.4-.4,0-.3-.2-.4-.4-.4Z"/>
        <path class="cls-1" d="M16.9,24.7c0,.1.1.2.2.2s.2-.1.2-.2h0v-1.5s0-.5-.4-.5h-1c-.4,0-.4.5-.4.5v1.5h0c0,.1.1.2.2.2s.2-.1.2-.2h0v-1.4c0-.1.1-.1.1-.1.1,0,.1.1.1.1v1.1l-.4,2h0c0,.2.1.3.2.3s.2-.1.2-.2l.3-1.5h0l.3,1.5c0,.1.1.2.2.2s.2-.1.2-.2h0c0-.1-.4-2.1-.4-2.1v-1.1c0-.1.1-.1.1-.1.1,0,.1.1.1.1v1.4h0Z"/>
        <path class="cls-1" d="M10.9,32.4h0c0,0,0,0,0,0h0Z"/>
        <path class="cls-1" d="M11.5,31.8l.6-.5-1.4-1.6-.6.5,1.4,1.6Z"/>
        <path class="cls-1" d="M17.1,42.9c.1,0,.2-.2.2-.3,0-.2-.2-.4-.3-.4-.2,0-.3.2-.3.4s.1.3.2.3h.1s0,0,0,0Z"/>
        <path class="cls-1" d="M17.3,46.4v-1.5c.3,0,.3-.2.3-.3v-1.4c0-.2,0-.3-.6-.3h-.2c-.5,0-.6.2-.6.3v1.4c0,0,0,.2.3.3v1.5c0,0,.1.2.4.2.3,0,.4,0,.4-.2Z"/>
        <path class="cls-1" d="M17.1,42.9h-.2.2Z"/>
        <path class="cls-1" d="M9.4,33.9c0-.3-.3-.6-.6-.6s-.6.3-.6.6.3.6.6.6.6-.2.6-.6Z"/>
        <path class="cls-1" d="M17.9,50.6v-1.4h.1v-1c0-.2-.1-.3-.3-.3h-.4c-.1,0-.3,0-.3.3v1h.2v1.4h.7Z"/>
        <path class="cls-1" d="M17.3,47.4c0,.2.1.3.3.3s.3,0,.3-.3-.1-.3-.3-.3c-.2,0-.3,0-.3.3Z"/>
        <path class="cls-1" d="M22.7,53.1h-.4c-.1,0-.2,0-.2.3v1.1c.1,0,.2,1.2.2,1.2h.4v-1.2c.1,0,.2-.2.2-.2v-.9c0,0-.1-.3-.2-.3Z"/>
        <path class="cls-1" d="M22.2,52.7c0,.2.1.3.3.3s.3,0,.3-.3-.1-.3-.3-.3-.3,0-.3.3Z"/>
        <path class="cls-1" d="M21.7,46.9c.1,0,.3,0,.3-.3s-.1-.3-.3-.3-.3,0-.3.3c0,0,.2.3.3.3Z"/>
        <path class="cls-1" d="M22.1,47.4c.1,0,.2,0,.2.2v.9c.1,0,.2,0,.2-.3v-.7c0-.3-.2-.4-.5-.4h-.7c-.3,0-.5,0-.5.4v.7c0,0,.1.3.2.3v-.9c0,0,0-.2.2-.2v2.8c.1,0,.3,0,.3-.4v-1.4h.2v1.4c0,.2.2.4.3.4v-2.8h0Z"/>
        <path class="cls-1" d="M5.5,52.5c0,0-.2,0-.2.2s0,.2.2.2.2,0,.2-.2,0-.2-.2-.2Z"/>
        <path class="cls-1" d="M5.7,53.1h-.5c-.2,0-.2.2-.2.3v.6c0,.2,0,.2.2.2h0l-.2,1.4h.3v-1.4h.2v1.4h.4v-1.4c0,0,0,0,0,0,0,0,0,0,0-.2v-.6c0-.1,0-.3-.3-.3Z"/>
        <path class="cls-1" d="M21.5,51.7c-.1,0-.1,0-.2,0s-.1,0,0-.2c.1,0,.1-.2.1-.4,0-.3-.2-.5-.5-.5s-.5.2-.5.5,0,.3.1.4c.1,0,.1.2,0,.2s-.2,0-.2,0c-.3,0-.4.2-.4.4v1.1c0,.2,0,.3.1.4.1,0,.2.2.3.2.1,0,.1.2.1.3v1.2c0,.2,0,.3.4.3h.2c.4,0,.4,0,.4-.3v-1.2q0-.2.1-.3t.3-.2c.1,0,.1-.2.1-.4v-1.1c0-.2-.1-.3-.4-.4Z"/>
        <path class="cls-1" d="M9.1,42.7c0-.3-.3-.6-.6-.6s-.6.3-.6.6.3.6.6.6c.3.1.6-.2.6-.6Z"/>
        <path class="cls-1" d="M9.7,43.6h-2.5v3.1c0,0,.4,0,.4,0l-.2,3.5h.8l.4-3.5.4,3.5h.8l-.2-3.5h.5l-.4-3.1Z"/>
        <path class="cls-1" d="M10.7,33.3c0,.2.1.3.3.3s.3,0,.3-.3-.1-.3-.3-.3-.3.2-.3.3Z"/>
        <path class="cls-1" d="M11.3,33.8h-.7c-.3,0-.3.3-.3.5v.9h.3v1.5h.7v-1.5h.3v-.9c0-.2-.1-.5-.3-.5Z"/>
        <path class="cls-1" d="M19,50.9c0-.2-.2-.4-.4-.4s-.4.2-.4.4.2.4.4.4c.2,0,.4-.1.4-.4Z"/>
        <path class="cls-1" d="M13.9,27.2c-.2,0-.4.2-.4.4s.2.4.4.4.4-.2.4-.4c.1-.3,0-.4-.4-.4Z"/>
        <path class="cls-1" d="M14.9,30.3h.4l-.5-1.8c-.1-.2-.4-.2-.4-.2h-1s-.3,0-.4.2l-.5,1.8h.4l.3-1.2.2.7-.4,2.8h.5l.4-2.2h0l.4,2.2h.5l-.4-2.9.2-.7.3,1.3Z"/>
        <path class="cls-1" d="M19.6,42.1c-.4,0-.7.3-.7.7s.3.7.7.7.7-.3.7-.7c-.1-.5-.4-.7-.7-.7Z"/>
        <path class="cls-1" d="M20.4,50.2v-5.4h.3v1.7h.5v-1.9c0-.5-.2-.8-.8-.9-.3,0-.5,0-.8,0s-.5,0-.8,0c-.6,0-.8.4-.8.9v1.9h.5v-1.7h.3v5.4h.6l.2-3.4h.1l.2,3.4h.5Z"/>
        <path class="cls-1" d="M17.3,36.6v-.8h-.3v.8c0,0,.1,0,.1,0,.1.1.2,0,.2,0Z"/>
        <path class="cls-1" d="M18.2,34.7v-.8c0-.2-.2-.3-.3-.3h-.9c-.2,0-.3,0-.3.3v.8c0,.2.1.3.2.3v-1h0v1.7h.8v-1.7h.2v1c.1,0,.2,0,.2-.3Z"/>
        <path class="cls-1" d="M17.8,36.6v-.8h-.3v.8c0,0,.1,0,.1,0,.1.1.2,0,.2,0Z"/>
        <path class="cls-1" d="M17.7,33.2c0-.2-.1-.3-.3-.3s-.3,0-.3.3.1.3.3.3.3-.2.3-.3Z"/>
        <path class="cls-1" d="M11.4,42.3c0-.2-.2-.4-.4-.4s-.4.2-.4.4.2.4.4.4.4-.2.4-.4Z"/>
        <path class="cls-1" d="M12.8,33.5c.2,0,.3,0,.3-.3s-.1-.3-.3-.3-.3,0-.3.3c-.1,0,.1.3.3.3Z"/>
        <path class="cls-1" d="M12.8,33.6c-.1,0-.2,0-.3.2l-.6.6v.8c.2,0,.3,0,.3-.3v-.4l.2-.2h.1v1.6l-.5.6c-.2.2-.2.4-.1.6l.8-.7h.1v.9c.1.2.2.4.5.4v-2.2c-.1,0-.1-.8-.1-.8,0,0,0,0,.1,0l.4.6c.1,0,.2,0,.4,0l-.9-1.5c-.2,0-.3-.2-.4-.2Z"/>
        <path class="cls-1" d="M20.7,39.4c.1,0,.2,0,.2-.2s-.1-.2-.2-.2-.2,0-.2.2.1.2.2.2Z"/>
        <path class="cls-1" d="M21.4,42.2v-.8l-.4-.7v-.3h.4v-.4h-.4v-.2c0-.2-.2-.2-.2-.2-.2,0-.2.2-.2.2v2.4h.3v-1.1h0l.2.3v.7h.3Z"/>
        <path class="cls-1" d="M10.6,47.7h-.6c-.1,0-.3.2-.3.4v1.2h1.1v-1.3c0-.2,0-.3-.2-.3Z"/>
        <path class="cls-1" d="M10.6,47.2c0,0-.1-.3-.3-.3s-.3,0-.3.3.1.3.3.3.3,0,.3-.3Z"/>
        <path class="cls-1" d="M10.1,50.6h.6v-1.2h-.6v1.2Z"/>
        <path class="cls-1" d="M19.5,33.3c-.3,0-.6.2-.6.5s.1.3.2.4c.1,0,.2,0,.3,0s.2,0,.3,0c.1,0,.2-.3.2-.4.2-.2-.1-.5-.4-.5Z"/>
        <path class="cls-1" d="M20.8,37.2v-1.8c0-.5-.3-.9-.8-.9,0,.3-.2.6-.5.6s-.5-.2-.5-.6c-.4,0-.8.4-.8.9v1.8c0,.6.4.8.6.8v3.2c0,.2.1.4.3.4h.8c.1,0,.3-.2.3-.4v-3.2c.2,0,.6,0,.6-.8Z"/>
        <path class="cls-1" d="M18.1,30.7l-.3.2c.1-.1.1-.3.1-.3v-.4s.3.3.3.4c-.1-.1-.1,0-.1,0ZM19,29.6c.1.1.1.2.2.4h-.2c-.2-.2-.4-.6-.4-.6.1.1.3.1.4.2ZM18.3,31.6v-.2c0-.1.3-.4.4-.5,0,.2.2.6.3.7l.2.2h0c.1.1.5.5.5.5h0q0,.2-.1.2t-.1,0,.1,0h.2q.1,0,.2,0s.1-.2.1-.3v-.2c-.1-.1-.4-.5-.5-.6,0-.1-.1,0-.1,0,0,0-.2-.1-.2-.2,0,0-.1-.6-.2-.9h.2c.1,0,.3-.1.2-.3-.1-.2-.2-.7-.3-.8-.2-.1-.8-.2-1-.1s-.2.2-.4.1v-.2c0-.2-.2-.4-.4-.4s-.4.2-.4.4.2.4.4.4h.1c.1.1-.1.3-.1.4-.1.2.1.5.1.7s-.1.4-.1.6h-.1q0,.1-.1.1h0s-.1.1-.2.1h0q-.1-.1-.1-.2-.1-.1-.2-.1c-.1,0-.1-.1-.2-.1-.1-.1-.3.1-.3.2-.1.2-.7,1.2-.7,1.3-.1,0-.1.2.1.2h1.8c.2,0,.1-.5,0-.6,0-.1-.1-.1-.1-.2h-.1c.1-.2.2-.2.2-.2h0c0-.1.2-.2.2-.2q.1,0,.2-.1l.3-.2c0,.1-.1.2-.1.2v.3s-.1,0-.1.1v.6c-.2,0-.3,0-.3.2,0,0,0,0,.1,0h.5q.1,0,.1,0c0,0,.1-.7.2-.8l-.2-.2Z"/>
        <path class="cls-1" d="M15.3,33.6c.2,0,.4-.2.4-.4s-.2-.4-.4-.4-.4.2-.4.4c0,.3.2.4.4.4Z"/>
        <path class="cls-1" d="M15.8,37.4v-2.9q0-.3.2-.5c.2-.3.6-.7.8-.8.2-.2-.1-.5-.3-.3-.1,0-.6.6-.8.8-.1,0-.2,0-.4,0s-.3,0-.4,0c-.2-.2-.7-.7-.8-.8-.2-.2-.5,0-.3.3.1,0,.5.6.7.8s.2.2.2.5v2.9c0,.3.4.3.4,0v-1.6c0,0,0-.2.1-.2s.1,0,.1.2v1.6c0,.3.5.3.5,0Z"/>
        <path class="cls-1" d="M16.7,37.5c0,.2.2.4.4.4s.4-.2.4-.4-.2-.4-.4-.4c-.2,0-.4.1-.4.4Z"/>
        <path class="cls-1" d="M16.7,41.3v-.9l.4-.3c0,.3,0,.9.1,1.1,0,0,.4.6.4.6q0,0-.1,0h-.2s0,0,.1,0q.1,0,.2,0c.1,0,.4-.2.5-.3s.1,0,0-.2c-.1,0-.3-.5-.3-.6s.1-.8.1-1.3c0,0,.1,0,.2,0s.1,0,.1-.2v-1.1c0,0-.1,0-.1,0h-.6q-.2,0-.3,0s-.3.2-.7.4c-.2,0-.4.2-.6.2v.4c.3,0,.8,0,1-.3v.8s-.6.4-.6.5c-.1,0,.1.7,0,.8h-.2c-.1,0-.1,0,0,.2.2,0,.4.3.5.4.1-.2.1-.3.1-.4Z"/>
        <path class="cls-1" d="M15.6,38.8c-.2,0-.2.3,0,.3v-.3h0Z"/>
        <path class="cls-1" d="M15.9,38.7c0,0-.1,0-.1,0-.1,0-.1,0-.1,0h.2Z"/>
        <path class="cls-1" d="M15.6,39.1v1.7c0,0,.1,0,.1,0,.1,0,.1,0,.1,0v-1.7h-.2Z"/>
        <path class="cls-1" d="M15.6,38.8v.3h.3v-.4c-.1,0-.2,0-.3.1Z"/>
        <path class="cls-1" d="M11.5,42.8h-1c-.2,0-.4.2-.4.4v1.2c0,.2,0,.3.3.3v-1.2h.2v.7h.9v-.7h.2v1.2c.2,0,.3-.2.3-.3v-1.2c-.1-.2-.3-.4-.5-.4Z"/>
        <path class="cls-1" d="M10.6,46.5c0,0,.1.2.2.2s.2,0,.2-.2v-1.5h.2v1.5c0,0,.1.2.2.2s.2,0,.2-.2v-2.1h-.9v2.1h0Z"/>
        <path class="cls-1" d="M10.1,37.7v-1.7c0-1-.3-1.2-1.3-1.2s-1.4.3-1.4,1.2v1.7c0,.3.2.4.5.4v-2.1c0,0,0-.2.2-.2v2.3s.1,3,.1,3.3.1.2.2.2h.7c.2,0,.2,0,.2-.2,0-.3.1-3.3.1-3.3v-2.3c.1,0,.2,0,.2.2v2.1c.3,0,.5,0,.5-.4Z"/>
        <path class="cls-1" d="M7.6,39.4c0,0,0-.2-.2-.2s-.2,0-.2.2,0,.2,0,.2h0c-.2,0-.4.3-.4.5v.8c0,0,0,1.3,0,1.3h.3l.2-1,.2,1h.3v-1.3c0,0,0-.2,0-.2v-.6c0-.2-.2-.4-.4-.4h0c0-.1,0-.2,0-.3Z"/>
        <path class="cls-1" d="M6.2,48.6v1.5h.6v-1.5h.4v-1.4c0-.2,0-.3-.3-.3h-.2c0-.2.2-.3.2-.4,0-.2,0-.3-.3-.3s-.3,0-.3.3,0,.2.2.3h0c0,0-.2,0-.2,0-.2,0-.3,0-.3.3v1.4h.2Z"/>
        <path class="cls-1" d="M12.2,31.5l-.7.6-1-1.2c-.1-.1-.5-.4-.6-.5s0-.5.1-.7,0-.2-.1-.4c-.1-.1,0-.1.1-.2s.3-.2.3-.4-.2-.4-.4-.4-.4.2-.4.4,0,.2.1.2c0,0,.1.1,0,.2-.2,0-.3,0-.4.1-.1.2-.2.4-.2.6-.1.2-.1.4-.2.6-.1.3-.1.4-.1.4l-.2.9s-.3.8-.3.9v.2c0,0,.1,0,.1,0h.6c.1,0,.1,0,0-.2h-.2c0,0,.2-.6.3-.8-.1-.3,0-.7,0-.7v.5c.1,0,0,.9,0,1s0,0,.1,0h.6s.1,0,.1,0c0,0,0,0-.1,0l-.3-.2v-.7c.1,0,.1-.6.1-.9,0,0,.5.2.5.2l1.5,1.7,1.1-.9-.4-.3Z"/>
        <path class="cls-1" d="M7.4,51.3c0,0,.2-.2.2-.4,0-.3-.2-.5-.5-.5s-.5.2-.5.5,0,.3.2.4c-.5,0-.8,0-.8.6v1.5h.2v-.7h.2v2.9h.6v-1.7h.2v1.7h.6v-2.9h0v.7h.3v-1.5c0-.4-.3-.5-.8-.6Z"/>
        <path class="cls-1" d="M9.8,51.5h-.4v-.2c.1,0,.2-.2.2-.4s-.2-.4-.4-.4-.4.2-.4.4.1.3.2.4v.2h-.4c-.1,0-.2,0-.2.2v1.6c0,0,.1.2.2.2h0v1.9c0,0,.1.2.2.2s.2,0,.2-.2v-1.9h.2v1.9c0,0,.1.2.2.2s.2,0,.2-.2v-1.9h0c.1,0,.2,0,.2-.2v-1.6c.2-.1.1-.2,0-.2Z"/>
        <path class="cls-1" d="M19.1,51.3h0c-.1,0-.3.2-.5.2s-.4,0-.5-.2h0c-.3,0-.5.2-.5.4v1.2c0,.3,0,.5.3.5v2.2c-.1,0,.4,0,.4,0v-2.2h.3v2.2h.6v-2.2c.2,0,.2-.3.2-.5v-1.2c.2-.2.1-.4-.3-.4Z"/>
        <path class="cls-1" d="M11.2,37.4c0,.2.2.4.4.4s.4-.2.4-.4-.2-.4-.4-.4c-.2,0-.4.2-.4.4Z"/>
        <path class="cls-1" d="M12.8,38.7h-.5l-.5-.6c-.2-.2-.6-.2-.7,0l-1.1.5-.2.7h.4v-.4c.1,0,.5-.2.5-.2h.1l-.3.9-1,1.9h0c0,0,.3.3.3.3h.1l.8-1.6,1.1,1.6h.1l.3-.2h0c0,0-1.2-2-1.2-2l.2-.9s0-.2.1,0l.4.5h.8l.3-.3c0,0,0,0,0,0Z"/>
        <path class="cls-1" d="M5.9,24.2v-1.1c0,0,.2-.1.2-.2v-.8c0-.1-.2-.2-.5-.2s-.5.1-.5.2v.9c0,.1,0,.1.2.2v1.1h.6Z"/>
      </g>
    </g>
  </g>
</svg>